<svg xmlns="http://www.w3.org/2000/svg" style="display: none;">
  <!-- icon-search -->
  <symbol id="icon-search">
    <g transform="translate(5.12,5.12) scale(0.96,0.96)">
      <g class="fill-lightpurple" fill-rule="nonzero" stroke="none" stroke-width="1" stroke-linecap="butt" stroke-linejoin="miter" stroke-miterlimit="10" stroke-dasharray="" stroke-dashoffset="0" font-family="none" font-weight="none" font-size="none" text-anchor="none" style="mix-blend-mode: normal">
        <g transform="scale(8.53333,8.53333)">
          <path d="M13,3c-5.511,0 -10,4.489 -10,10c0,5.511 4.489,10 10,10c2.39651,0 4.59738,-0.85101 6.32227,-2.26367l5.9707,5.9707c0.25082,0.26124 0.62327,0.36648 0.97371,0.27512c0.35044,-0.09136 0.62411,-0.36503 0.71547,-0.71547c0.09136,-0.35044 -0.01388,-0.72289 -0.27512,-0.97371l-5.9707,-5.9707c1.41266,-1.72488 2.26367,-3.92576 2.26367,-6.32227c0,-5.511 -4.489,-10 -10,-10zM13,5c4.43012,0 8,3.56988 8,8c0,4.43012 -3.56988,8 -8,8c-4.43012,0 -8,-3.56988 -8,-8c0,-4.43012 3.56988,-8 8,-8z">
          </path>
        </g>
      </g>
    </g>
  </symbol>

  <!-- icon-home -->
  <symbol id="icon-home">
    <g>
      <path d="M498.7 222.695c-.016-.011-.028-.027-.04-.039L289.805 13.81C280.902 4.902 269.066 0 256.477 0c-12.59 0-24.426 4.902-33.332 13.809L14.398 222.55c-.07.07-.144.144-.21.215-18.282 18.386-18.25 48.218.09 66.558 8.378 8.383 19.44 13.235 31.273 13.746.484.047.969.07 1.457.07h8.32v153.696c0 30.418 24.75 55.164 55.168 55.164h81.711c8.285 0 15-6.719 15-15V376.5c0-13.879 11.293-25.168 25.172-25.168h48.195c13.88 0 25.168 11.29 25.168 25.168V497c0 8.281 6.715 15 15 15h81.711c30.422 0 55.168-24.746 55.168-55.164V303.14h7.719c12.586 0 24.422-4.903 33.332-13.813 18.36-18.367 18.367-48.254.027-66.633zm-21.243 45.422a17.03 17.03 0 0 1-12.117 5.024H442.62c-8.285 0-15 6.714-15 15v168.695c0 13.875-11.289 25.164-25.168 25.164h-66.71V376.5c0-30.418-24.747-55.168-55.169-55.168H232.38c-30.422 0-55.172 24.75-55.172 55.168V482h-66.71c-13.876 0-25.169-11.29-25.169-25.164V288.14c0-8.286-6.715-15-15-15H48a13.9 13.9 0 0 0-.703-.032c-4.469-.078-8.66-1.851-11.8-4.996-6.68-6.68-6.68-17.55 0-24.234.003 0 .003-.004.007-.008l.012-.012L244.363 35.02A17.003 17.003 0 0 1 256.477 30c4.574 0 8.875 1.781 12.113 5.02l208.8 208.796.098.094c6.645 6.692 6.633 17.54-.031 24.207zm0 0" opacity="1" data-original="#000000"></path>
    </g>
  </symbol>

  <!-- icon-explore -->
  <symbol id="icon-explore">
    <g>
      <path d="M16 2a14 14 0 1 0 14 14A14 14 0 0 0 16 2zm0 26a12 12 0 1 1 12-12 12 12 0 0 1-12 12zm5.92-19.26L13.43 13a1.08 1.08 0 0 0-.45.45l-4.24 8.47a1 1 0 0 0 .9 1.44 1 1 0 0 0 .44-.1L18.57 19a1.08 1.08 0 0 0 .45-.45l4.24-8.49a1 1 0 0 0-.19-1.15 1 1 0 0 0-1.15-.17zm-4.54 8.64-5.51 2.75 2.75-5.51 5.51-2.75z" data-name="06 explore" opacity="1" data-original="#000000">
      </path>
    </g>
  </symbol>

  <!-- icon-messages -->
  <symbol id="icon-messages">
    <g>
      <path d="M8 30a1.001 1.001 0 0 1-1-1v-5H4c-1.654 0-3-1.346-3-3V5c0-1.654 1.346-3 3-3h24c1.654 0 3 1.346 3 3v16c0 1.654-1.346 3-3 3H15.851l-7.226 5.781A.998.998 0 0 1 8 30zM4 4c-.552 0-1 .449-1 1v16c0 .551.448 1 1 1h4a1 1 0 0 1 1 1v3.92l5.875-4.701A1 1 0 0 1 15.5 22H28c.552 0 1-.449 1-1V5c0-.551-.448-1-1-1z" opacity="1" data-original="#000000" class="">
      </path>
      <path d="M24 12H8a1 1 0 1 1 0-2h16a1 1 0 1 1 0 2zM16 16H8a1 1 0 1 1 0-2h8a1 1 0 1 1 0 2z" opacity="1" data-original="#000000"></path>
    </g>
  </symbol>

  <!-- icon-create -->
  <symbol id="icon-create">
    <g>
      <path fill-rule="evenodd" d="M3.181.264A2.92 2.92 0 0 0 .264 3.18a2.922 2.922 0 0 0 2.917 2.917 2.92 2.92 0 0 0 2.915-2.917A2.919 2.919 0 0 0 3.18.264zm0 .53A2.38 2.38 0 0 1 5.566 3.18 2.382 2.382 0 0 1 3.18 5.566 2.384 2.384 0 0 1 .794 3.179 2.383 2.383 0 0 1 3.181.794zm-.004 1.057a.265.265 0 0 0-.263.27v.794h-.793a.265.265 0 0 0-.028 0 .266.266 0 0 0 .028.53h.793v.794a.265.265 0 0 0 .531 0v-.793h.794a.265.265 0 0 0 0-.531h-.794v-.794a.265.265 0 0 0-.268-.27z" paint-order="stroke fill markers" opacity="1" data-original="#000000"></path>
    </g>
  </symbol>

  <!-- icon-notification -->
  <symbol id="icon-notification">
    <g>
      <path d="m28.07 22.66-1.71-2.46a2 2 0 0 1-.36-1.14V12a10 10 0 0 0-20 0v7.06a2 2 0 0 1-.36 1.14l-1.71 2.46A2 2 0 0 0 5.41 26h5.69a5 5 0 0 0 9.8 0h5.69a2 2 0 0 0 1.48-3.34zM16 28a3 3 0 0 1-2.82-2h5.64A3 3 0 0 1 16 28zM5.41 24a.81.81 0 0 0 .12-.14l1.75-2.52A4 4 0 0 0 8 19.06V12a8 8 0 0 1 16 0v7.06a4 4 0 0 0 .72 2.28l1.75 2.52a.81.81 0 0 0 .12.14z" data-name="28" opacity="1" data-original="#000000"></path>
    </g>
  </symbol>

  <!-- icon-add-people -->
  <symbol id="icon-add-people">
    <g id="SVGRepo_bgCarrier" stroke-width="0"></g>
    <g id="SVGRepo_tracerCarrier" stroke-linecap="round" stroke-linejoin="round"></g>
    <g id="SVGRepo_iconCarrier">
      <style type="text/css">
        .st0 {
          fill: none;
          stroke: #3c096c;
          stroke-width: 2;
          stroke-linecap: round;
          stroke-linejoin: round;
          stroke-miterlimit: 10;
        }

        .st1 {
          fill: none;
          stroke: #3c096c;
          stroke-width: 2;
          stroke-linejoin: round;
          stroke-miterlimit: 10;
        }
      </style>
      <circle class="st0" cx="23" cy="22" r="7"></circle>
      <line class="st0" x1="23" y1="19" x2="23" y2="25"></line>
      <line class="st0" x1="20" y1="22" x2="26" y2="22"></line>
      <path class="st0" d="M20.5,15.5c0.3-0.8,0.5-1.6,0.5-2.5v0c0-1.1,0.9-2,2-2h0l0-2.3c0-2.8-2.1-5.4-4.9-5.7c-2-0.2-3.8,0.6-4.9,2.1 c-0.8-0.2-1.6-0.1-2.6,0.6C9.6,6.4,9,7.7,9,9l0,1v1.5v1.3c0,2.2,1.2,4.3,3,5.4v0c0,2.3-1.6,4.2-3.8,4.8c-2.6,0.7-4.5,2.8-5.1,5.4 C3.1,28.7,3.3,29,3.7,29L23,29">
      </path>
    </g>
  </symbol>

  <!-- icon-info -->
  <symbol id="icon-info">
    <g id="SVGRepo_bgCarrier" stroke-width="0"></g>
    <g id="SVGRepo_tracerCarrier" stroke-linecap="round" stroke-linejoin="round"></g>
    <g id="SVGRepo_iconCarrier">
      <circle cx="12" cy="12" r="10" stroke="#3c096c" stroke-width="1.5"></circle>
      <path d="M12 17V11" stroke="#3c096c" stroke-width="1.5" stroke-linecap="round"></path>
      <circle cx="1" cy="1" r="1" transform="matrix(1 0 0 -1 11 9)" fill="#3c096c"></circle>
    </g>
  </symbol>

  <!-- icon-send -->
  <symbol id="icon-send">
    <g>
      <path d="M511.658 51.675c2.496-11.619-8.895-21.416-20.007-17.176l-482 184a15 15 0 0 0-.054 28.006L145 298.8v164.713a15 15 0 0 0 28.396 6.75l56.001-111.128 136.664 101.423c8.313 6.17 20.262 2.246 23.287-7.669C516.947 34.532 511.431 52.726 511.658 51.675zm-118.981 52.718L157.874 271.612 56.846 232.594zM175 296.245l204.668-145.757c-176.114 185.79-166.916 176.011-167.684 177.045-1.141 1.535 1.985-4.448-36.984 72.882zm191.858 127.546-120.296-89.276 217.511-229.462z" fill=#3c096c opacity="1" data-original="#000000"></path>
    </g>
  </symbol>

  <!-- icon-close -->
  <symbol id="icon-close">
    <path d="M16 0c-8.836 0-16 7.163-16 16s7.163 16 16 16c8.837 0 16-7.163 16-16s-7.163-16-16-16zM16 30.032c-7.72 0-14-6.312-14-14.032s6.28-14 14-14 14 6.28 14 14-6.28 14.032-14 14.032zM21.657 10.344c-0.39-0.39-1.023-0.39-1.414 0l-4.242 4.242-4.242-4.242c-0.39-0.39-1.024-0.39-1.415 0s-0.39 1.024 0 1.414l4.242 4.242-4.242 4.242c-0.39 0.39-0.39 1.024 0 1.414s1.024 0.39 1.415 0l4.242-4.242 4.242 4.242c0.39 0.39 1.023 0.39 1.414 0s0.39-1.024 0-1.414l-4.242-4.242 4.242-4.242c0.391-0.391 0.391-1.024 0-1.414z">
    </path>
  </symbol>

  <!-- icon-attachment-image -->
  <symbol id="icon-attachment-image">
    <g>
      <defs>
        <clipPath id="a" clipPathUnits="userSpaceOnUse">
          <path d="M0 512h512V0H0Z" fill="#000000" opacity="1" data-original="#000000"></path>
        </clipPath>
      </defs>
      <g clip-path="url(#a)" transform="matrix(1.33333 0 0 -1.33333 0 682.667)">
        <path d="M0 0h-328.205c-20.634 0-37.362 16.728-37.362 37.363v211.902c0 34.987 28.362 63.35 63.35 63.35H0c20.635 0 37.363-16.728 37.363-37.363V37.363C37.363 16.728 20.635 0 0 0" style="fill-opacity:1;fill-rule:nonzero;stroke:none" transform="translate(375.567 141.653)" fill="#ee4e71" data-original="#ee4e71" class=""></path>
        <path d="M0 0h-328.205c-20.634 0-37.362 16.728-37.362 37.363v211.902c0 34.987 28.362 63.35 63.35 63.35H0c20.635 0 37.363-16.728 37.363-37.363V37.363C37.363 16.728 20.635 0 0 0Z" style="stroke-width:20;stroke-linecap:round;stroke-linejoin:round;stroke-miterlimit:10;stroke-dasharray:none;stroke-opacity:1" transform="translate(375.567 141.653)" fill="none" stroke="#000000" stroke-width="20" stroke-linecap="round" stroke-linejoin="round" stroke-miterlimit="10" stroke-dasharray="none" stroke-opacity="" data-original="#000000" class=""></path>
        <path d="M0 0h-328.205c-20.635 0-37.362 16.728-37.362 37.363v236.115c0 21.614 17.522 39.137 39.136 39.137H0c20.635 0 37.363-16.728 37.363-37.363V37.363C37.363 16.728 20.635 0 0 0" style="fill-opacity:1;fill-rule:nonzero;stroke:none" transform="translate(418.066 99.582)" fill="#ffd866" data-original="#ffd866" class=""></path>
        <path d="M0 0h124.103c20.634 0 37.362-16.728 37.362-37.363v-237.889c0-20.635-16.728-37.363-37.362-37.363h-328.205c-20.635 0-37.363 16.728-37.363 37.363v236.115C-241.465-17.522-223.943 0-202.328 0H-80" style="stroke-width:20;stroke-linecap:round;stroke-linejoin:round;stroke-miterlimit:10;stroke-dasharray:none;stroke-opacity:1" transform="translate(293.964 412.197)" fill="none" stroke="#000000" stroke-width="20" stroke-linecap="round" stroke-linejoin="round" stroke-miterlimit="10" stroke-dasharray="none" stroke-opacity="" data-original="#000000" class=""></path>
        <path d="M0 0h-337.913c-17.954 0-32.509 14.555-32.509 32.509v247.597c0 17.955 14.555 32.509 32.509 32.509H0c17.954 0 32.509-14.554 32.509-32.509V32.509C32.509 14.555 17.954 0 0 0" style="fill-opacity:1;fill-rule:nonzero;stroke:none" transform="translate(469.491 57.732)" fill="#d6effb" data-original="#d6effb" class=""></path>
        <path d="M0 0h-337.913c-17.954 0-32.509 14.555-32.509 32.509v247.597c0 17.955 14.555 32.509 32.509 32.509H0c17.954 0 32.509-14.554 32.509-32.509V32.509C32.509 14.555 17.954 0 0 0Z" style="stroke-width:20;stroke-linecap:round;stroke-linejoin:round;stroke-miterlimit:10;stroke-dasharray:none;stroke-opacity:1" transform="translate(469.491 57.732)" fill="none" stroke="#000000" stroke-width="20" stroke-linecap="round" stroke-linejoin="round" stroke-miterlimit="10" stroke-dasharray="none" stroke-opacity="" data-original="#000000" class=""></path>
        <path d="M0 0h337.913c17.954 0 32.508 14.555 32.508 32.509v63.776l-59.528 44.965a23.567 23.567 0 0 1-28.082.242l-62.049-45.207L109.777 210.71c-8.76 9.033-23.072 9.589-32.508 1.265l-109.778-96.852V32.509C-32.509 14.555-17.955 0 0 0" style="fill-opacity:1;fill-rule:nonzero;stroke:none" transform="translate(131.579 57.732)" fill="#00b7ec" data-original="#00b7ec"></path>
        <path d="M0 0h337.913c17.954 0 32.508 14.555 32.508 32.509v63.776l-59.528 44.965a23.567 23.567 0 0 1-28.082.242l-62.049-45.207L109.777 210.71c-8.76 9.033-23.072 9.589-32.508 1.265l-109.778-96.852V32.509C-32.509 14.555-17.955 0 0 0Z" style="stroke-width:20;stroke-linecap:round;stroke-linejoin:round;stroke-miterlimit:10;stroke-dasharray:none;stroke-opacity:1" transform="translate(131.579 57.732)" fill="none" stroke="#000000" stroke-width="20" stroke-linecap="round" stroke-linejoin="round" stroke-miterlimit="10" stroke-dasharray="none" stroke-opacity="" data-original="#000000" class=""></path>
        <path d="m0 0 94.262-97.185" style="stroke-width:20;stroke-linecap:round;stroke-linejoin:round;stroke-miterlimit:10;stroke-dasharray:none;stroke-opacity:1" transform="translate(288.72 219.61)" fill="none" stroke="#000000" stroke-width="20" stroke-linecap="round" stroke-linejoin="round" stroke-miterlimit="10" stroke-dasharray="none" stroke-opacity="" data-original="#000000" class=""></path>
        <path d="M0 0c0-18.112-14.683-32.795-32.795-32.795-18.113 0-32.796 14.683-32.796 32.795 0 18.112 14.683 32.795 32.796 32.795C-14.683 32.795 0 18.112 0 0" style="fill-opacity:1;fill-rule:nonzero;stroke:none" transform="translate(421.31 276.858)" fill="#ffd866" data-original="#ffd866" class=""></path>
        <path d="M0 0c0-18.112-14.683-32.795-32.795-32.795-18.113 0-32.796 14.683-32.796 32.795 0 18.112 14.683 32.795 32.796 32.795C-14.683 32.795 0 18.112 0 0Z" style="stroke-width:20;stroke-linecap:round;stroke-linejoin:round;stroke-miterlimit:10;stroke-dasharray:none;stroke-opacity:1" transform="translate(421.31 276.858)" fill="none" stroke="#000000" stroke-width="20" stroke-linecap="round" stroke-linejoin="round" stroke-miterlimit="10" stroke-dasharray="none" stroke-opacity="" data-original="#000000" class=""></path>
        <path d="M0 0v0" style="stroke-width:20;stroke-linecap:round;stroke-linejoin:round;stroke-miterlimit:10;stroke-dasharray:none;stroke-opacity:1" transform="translate(253.964 412.197)" fill="none" stroke="#000000" stroke-width="20" stroke-linecap="round" stroke-linejoin="round" stroke-miterlimit="10" stroke-dasharray="none" stroke-opacity="" data-original="#000000" class=""></path>
      </g>
    </g>
  </symbol>

  <!-- icon-attachment-video -->
  <symbol id="icon-attachment-video">
    <g>
      <defs>
        <clipPath id="a" clipPathUnits="userSpaceOnUse">
          <path d="M0 512h512V0H0Z" fill="#000000" opacity="1" data-original="#000000"></path>
        </clipPath>
      </defs>
      <g clip-path="url(#a)" transform="matrix(1.33333 0 0 -1.33333 0 682.667)">
        <path d="m0 0 59.967 35.293C70.596 41.549 84 33.885 84 21.551v-192.227c0-12.334-13.404-19.998-24.033-13.742L0-149.126Z" style="fill-opacity:1;fill-rule:nonzero;stroke:none" transform="translate(418 222.563)" fill="#9bc6ff" data-original="#9bc6ff">
        </path>
        <path d="M418 216h-40V80h40z" style="fill-opacity:1;fill-rule:nonzero;stroke:none" fill="#98a1b3" data-original="#98a1b3"></path>
        <path d="M0 0h320c13.255 0 24-10.745 24-24v-200c0-13.255-10.745-24-24-24H0c-13.255 0-24 10.745-24 24v200C-24-10.745-13.255 0 0 0" style="fill-opacity:1;fill-rule:nonzero;stroke:none" transform="translate(34 272)" fill="#8690a6" data-original="#8690a6"></path>
        <path d="M0 0c0-13.255-10.745-24-24-24S-48-13.255-48 0s10.745 24 24 24S0 13.255 0 0" style="fill-opacity:1;fill-rule:nonzero;stroke:none" transform="translate(330 200)" fill="#f5737f" data-original="#f5737f">
        </path>
        <path d="M418 216h-40V80h40z" style="stroke-width:20;stroke-linecap:round;stroke-linejoin:round;stroke-miterlimit:10;stroke-dasharray:none;stroke-opacity:1" fill="none" stroke="#000000" stroke-width="20" stroke-linecap="round" stroke-linejoin="round" stroke-miterlimit="10" stroke-dasharray="none" stroke-opacity="" data-original="#000000" class="hovered-path"></path>
        <path d="m0 0 59.967 35.293C70.596 41.549 84 33.885 84 21.551v-192.227c0-12.334-13.404-19.998-24.033-13.742L0-149.126Z" style="stroke-width:20;stroke-linecap:round;stroke-linejoin:round;stroke-miterlimit:10;stroke-dasharray:none;stroke-opacity:1" transform="translate(418 222.563)" fill="none" stroke="#000000" stroke-width="20" stroke-linecap="round" stroke-linejoin="round" stroke-miterlimit="10" stroke-dasharray="none" stroke-opacity="" data-original="#000000" class="hovered-path"></path>
        <path d="M0 0c0-13.255-10.745-24-24-24S-48-13.255-48 0s10.745 24 24 24S0 13.255 0 0Z" style="stroke-width:20;stroke-linecap:round;stroke-linejoin:round;stroke-miterlimit:10;stroke-dasharray:none;stroke-opacity:1" transform="translate(330 200)" fill="none" stroke="#000000" stroke-width="20" stroke-linecap="round" stroke-linejoin="round" stroke-miterlimit="10" stroke-dasharray="none" stroke-opacity="" data-original="#000000" class="hovered-path"></path>
        <path d="M0 0v0" style="stroke-width:20;stroke-linecap:round;stroke-linejoin:round;stroke-miterlimit:10;stroke-dasharray:none;stroke-opacity:1" transform="translate(194 24)" fill="none" stroke="#000000" stroke-width="20" stroke-linecap="round" stroke-linejoin="round" stroke-miterlimit="10" stroke-dasharray="none" stroke-opacity="" data-original="#000000" class="hovered-path"></path>
        <path d="M0 0c0 44.183-35.817 80-80 80s-80-35.817-80-80 35.817-80 80-80S0-44.183 0 0" style="fill-opacity:1;fill-rule:nonzero;stroke:none" transform="translate(170 352)" fill="#98a1b3" data-original="#98a1b3">
        </path>
        <path d="M0 0c0 59.647-48.353 108-108 108S-216 59.647-216 0s48.353-108 108-108S0-59.647 0 0" style="fill-opacity:1;fill-rule:nonzero;stroke:none" transform="translate(383.943 380)" fill="#8690a6" data-original="#8690a6">
        </path>
        <path d="M0 0c0 59.647-48.353 108-108 108S-216 59.647-216 0s48.353-108 108-108S0-59.647 0 0z" style="stroke-width:20;stroke-linecap:round;stroke-linejoin:round;stroke-miterlimit:10;stroke-dasharray:none;stroke-opacity:1" transform="translate(383.943 380)" fill="none" stroke="#000000" stroke-width="20" stroke-linecap="round" stroke-linejoin="round" stroke-miterlimit="10" stroke-dasharray="none" stroke-opacity="" data-original="#000000" class="hovered-path"></path>
        <path d="M0 0c0 37.555-30.445 68-68 68s-68-30.445-68-68 30.445-68 68-68S0-37.555 0 0" style="fill-opacity:1;fill-rule:nonzero;stroke:none" transform="translate(343.943 380)" fill="#d3d7df" data-original="#d3d7df">
        </path>
        <path d="M0 0c0 37.555-30.445 68-68 68s-68-30.445-68-68 30.445-68 68-68S0-37.555 0 0z" style="stroke-width:20;stroke-linecap:round;stroke-linejoin:round;stroke-miterlimit:10;stroke-dasharray:none;stroke-opacity:1" transform="translate(343.943 380)" fill="none" stroke="#000000" stroke-width="20" stroke-linecap="round" stroke-linejoin="round" stroke-miterlimit="10" stroke-dasharray="none" stroke-opacity="" data-original="#000000" class="hovered-path"></path>
        <path d="M0 0v0" style="stroke-width:20;stroke-linecap:round;stroke-linejoin:round;stroke-miterlimit:10;stroke-dasharray:none;stroke-opacity:1" transform="translate(275.943 407.333)" fill="none" stroke="#000000" stroke-width="20" stroke-linecap="round" stroke-linejoin="round" stroke-miterlimit="10" stroke-dasharray="none" stroke-opacity="" data-original="#000000" class="hovered-path"></path>
        <path d="M0 0v0" style="stroke-width:20;stroke-linecap:round;stroke-linejoin:round;stroke-miterlimit:10;stroke-dasharray:none;stroke-opacity:1" transform="translate(275.943 352.667)" fill="none" stroke="#000000" stroke-width="20" stroke-linecap="round" stroke-linejoin="round" stroke-miterlimit="10" stroke-dasharray="none" stroke-opacity="" data-original="#000000" class="hovered-path"></path>
        <path d="M0 0v0" style="stroke-width:20;stroke-linecap:round;stroke-linejoin:round;stroke-miterlimit:10;stroke-dasharray:none;stroke-opacity:1" transform="translate(303.276 380)" fill="none" stroke="#000000" stroke-width="20" stroke-linecap="round" stroke-linejoin="round" stroke-miterlimit="10" stroke-dasharray="none" stroke-opacity="" data-original="#000000" class="hovered-path"></path>
        <path d="M0 0v0" style="stroke-width:20;stroke-linecap:round;stroke-linejoin:round;stroke-miterlimit:10;stroke-dasharray:none;stroke-opacity:1" transform="translate(248.61 380)" fill="none" stroke="#000000" stroke-width="20" stroke-linecap="round" stroke-linejoin="round" stroke-miterlimit="10" stroke-dasharray="none" stroke-opacity="" data-original="#000000" class="hovered-path"></path>
        <path d="M0 0c0 44.183-35.817 80-80 80s-80-35.817-80-80 35.817-80 80-80S0-44.183 0 0z" style="stroke-width:20;stroke-linecap:round;stroke-linejoin:round;stroke-miterlimit:10;stroke-dasharray:none;stroke-opacity:1" transform="translate(170 352)" fill="none" stroke="#000000" stroke-width="20" stroke-linecap="round" stroke-linejoin="round" stroke-miterlimit="10" stroke-dasharray="none" stroke-opacity="" data-original="#000000" class="hovered-path"></path>
        <path d="M0 0c0 19.882-16.118 36-36 36S-72 19.882-72 0s16.118-36 36-36S0-19.882 0 0" style="fill-opacity:1;fill-rule:nonzero;stroke:none" transform="translate(126 352)" fill="#d3d7df" data-original="#d3d7df">
        </path>
        <path d="M0 0c0 19.882-16.118 36-36 36S-72 19.882-72 0s16.118-36 36-36S0-19.882 0 0z" style="stroke-width:20;stroke-linecap:round;stroke-linejoin:round;stroke-miterlimit:10;stroke-dasharray:none;stroke-opacity:1" transform="translate(126 352)" fill="none" stroke="#000000" stroke-width="20" stroke-linecap="round" stroke-linejoin="round" stroke-miterlimit="10" stroke-dasharray="none" stroke-opacity="" data-original="#000000" class="hovered-path"></path>
        <path d="M0 0h-115c-13.255 0-24 10.745-24 24v200c0 13.255 10.745 24 24 24h320c13.255 0 24-10.745 24-24V24c0-13.255-10.745-24-24-24H90" style="stroke-width:20;stroke-linecap:round;stroke-linejoin:round;stroke-miterlimit:10;stroke-dasharray:none;stroke-opacity:1" transform="translate(149 24)" fill="none" stroke="#000000" stroke-width="20" stroke-linecap="round" stroke-linejoin="round" stroke-miterlimit="10" stroke-dasharray="none" stroke-opacity="" data-original="#000000" class="hovered-path"></path>
        <path d="M238 168H64V72h174z" style="fill-opacity:1;fill-rule:nonzero;stroke:#000000;stroke-width:20;stroke-linecap:round;stroke-linejoin:round;stroke-miterlimit:10;stroke-dasharray:none;stroke-opacity:1" data-original="#000000"></path>
        <path d="M330 80h-48v48h48z" style="fill-opacity:1;fill-rule:nonzero;stroke:#000000;stroke-width:20;stroke-linecap:round;stroke-linejoin:round;stroke-miterlimit:10;stroke-dasharray:none;stroke-opacity:1" data-original="#000000"></path>
      </g>
    </g>
  </symbol>

  <!-- icon-attachment-gif -->
  <symbol id="icon-attachment-gif">
    <g>
      <path fill="#bdbdbe" d="M14 6V2h48v58H14z" opacity="1" data-original="#bdbdbe">
      </path>
      <path fill="#e5e5e5" d="M12 28v34h46V16L48 6H12z" opacity="1" data-original="#e5e5e5"></path>
      <path fill="#f2f2f2" d="M15 6v49a4 4 0 0 0 4 4h39V16L48 6z" opacity="1" data-original="#f2f2f2" class=""></path>
      <path fill="#b2ccea" d="M46 55H16V32h30v10z" opacity="1" data-original="#b2ccea">
      </path>
      <path fill="#d7d7d8" d="M13.5 29.5h30a2 2 0 0 0 2-2v-14a2 2 0 0 0-2-2H12v18z" opacity="1" data-original="#d7d7d8" class=""></path>
      <path fill="#ffc239" d="M12 28H2V10h42v18z" opacity="1" data-original="#ffc239" class=""></path>
      <path fill="#ffd55d" d="M6 21a4 4 0 0 0 4 4h34V10H6z" opacity="1" data-original="#ffd55d" class="">
      </path>
      <path fill="#9c9d9e" d="M48 6v8a2 2 0 0 0 2 2h8z" opacity="1" data-original="#9c9d9e"></path>
      <path fill="#d1e0f2" d="M46 53H20a2 2 0 0 1-2-2V36a2 2 0 0 1 2-2h26z" opacity="1" data-original="#d1e0f2"></path>
      <path fill="#00c564" d="M38.062 51H20l3-8 4 2 4-8 3 5h4l1.489 3.351z" opacity="1" data-original="#00c564"></path>
      <circle cx="21" cy="37" r="2" fill="#ffb127" opacity="1" data-original="#ffb127">
      </circle>
      <g fill="#fff">
        <path d="M20 18h-3v2h2v2a1 1 0 0 1-1 1h-1c-1.442 0-3-1.529-3-4s1.558-4 3-4a3.478 3.478 0 0 1 2.293.707l1.414-1.414A5.311 5.311 0 0 0 17 13c-2.4 0-5 2.294-5 6s2.6 6 5 6h1a3 3 0 0 0 3-3v-3a1 1 0 0 0-1-1zM23 13h2v12h-2zM34 15v-2h-6a1 1 0 0 0-1 1v11h2v-6h4v-2h-4v-2z" fill="#ffffff" opacity="1" data-original="#ffffff"></path>
      </g>
      <path fill="#00a963" d="m38.062 51 .944-3.736L38 45h-3.182a1.444 1.444 0 0 1-1.239-.7l-1.7-2.831a.939.939 0 0 0-1.645.063l-2.722 5.444a1.147 1.147 0 0 1-1.539.513l-1.911-.956a1.07 1.07 0 0 0-1.48.582L21.125 51z" opacity="1" data-original="#00a963"></path>
      <circle cx="46" cy="50" r="8" fill="#c64635" opacity="1" data-original="#c64635">
      </circle>
      <path fill="#d16b5d" d="M46 42a7.958 7.958 0 0 0-4.851 1.649 7.99 7.99 0 0 0 11.2 11.2A7.99 7.99 0 0 0 46 42z" opacity="1" data-original="#d16b5d"></path>
      <path fill="#d7d7d8" d="M44 46v8l6-4z" opacity="1" data-original="#d7d7d8" class="">
      </path>
      <path fill="#f2f2f2" d="M45 49.565A1.434 1.434 0 0 0 46.435 51H48.5l1.5-1-5-3.333z" opacity="1" data-original="#f2f2f2" class=""></path>
      <path d="M62 1H14a1 1 0 0 0-1 1v3h-1a1 1 0 0 0-1 1v3H2a1 1 0 0 0-1 1v18a1 1 0 0 0 1 1h9v33a1 1 0 0 0 1 1h46a1 1 0 0 0 1-1v-1h3a1 1 0 0 0 1-1V2a1 1 0 0 0-1-1zM3 11h40v16H3zm10 50V29h31a1 1 0 0 0 1-1V10a1 1 0 0 0-1-1H13V7h34v7a3 3 0 0 0 3 3h7v44zM49 8.414 55.586 15H50a1 1 0 0 1-1-1zM61 59h-2V16a1 1 0 0 0-.293-.707l-10-10A1 1 0 0 0 48 5H15V3h46z" fill="#000000" opacity="1" data-original="#000000" class=""></path>
      <path d="M47 41.059V32a1 1 0 0 0-1-1H16a1 1 0 0 0-1 1v23a1 1 0 0 0 1 1h23.311A8.993 8.993 0 1 0 47 41.059zM17 54V33h28v8.059a8.967 8.967 0 0 0-5.23 2.461l-.856-1.926A1 1 0 0 0 38 41h-3.434l-2.709-4.515a1 1 0 0 0-1.752.068l-3.552 7.105-3.106-1.553a.993.993 0 0 0-.812-.036 1 1 0 0 0-.572.58l-3 8A1 1 0 0 0 20 52h17.232a8.906 8.906 0 0 0 .718 2zm20-4H21.443l2.1-5.609 3.007 1.5a1 1 0 0 0 1.342-.448l3.185-6.37 2.063 3.438A1 1 0 0 0 34 43h3.35l1.008 2.269A8.937 8.937 0 0 0 37 50zm9 7a7 7 0 1 1 7-7 7.008 7.008 0 0 1-7 7z" fill="#000000" opacity="1" data-original="#000000" class=""></path>
      <path d="M24 37a3 3 0 1 0-3 3 3 3 0 0 0 3-3zm-4 0a1 1 0 1 1 1 1 1 1 0 0 1-1-1zM50.554 49.167l-6-4A1 1 0 0 0 43 46v8a1 1 0 0 0 1.555.832l6-4a1 1 0 0 0 0-1.664zM45 52.131v-4.262L48.2 50zM20 18h-3v2h2v2a1 1 0 0 1-1 1h-1c-1.442 0-3-1.529-3-4s1.558-4 3-4a3.478 3.478 0 0 1 2.293.707l1.414-1.414A5.311 5.311 0 0 0 17 13c-2.4 0-5 2.294-5 6s2.6 6 5 6h1a3 3 0 0 0 3-3v-3a1 1 0 0 0-1-1zM23 13h2v12h-2zM27 14v11h2v-6h4v-2h-4v-2h5v-2h-6a1 1 0 0 0-1 1z" fill="#000000" opacity="1" data-original="#000000" class=""></path>
    </g>
  </symbol>

  <!-- icon-tick -->
  <symbol id="icon-tick">
    <g>
      <path d="M504.502 75.496c-9.997-9.998-26.205-9.998-36.204 0L161.594 382.203 43.702 264.311c-9.997-9.998-26.205-9.997-36.204 0-9.998 9.997-9.998 26.205 0 36.203l135.994 135.992c9.994 9.997 26.214 9.99 36.204 0L504.502 111.7c9.998-9.997 9.997-26.206 0-36.204z" fill="#000000" opacity="1" data-original="#000000"></path>
    </g>
  </symbol>

  <!-- icon-notification-settings -->
  <symbol id="icon-notification-settings">
    <g>
      <defs>
        <clipPath id="a" clipPathUnits="userSpaceOnUse">
          <path d="M0 512h512V0H0Z" fill="#000000" opacity="1" data-original="#000000"></path>
        </clipPath>
      </defs>
      <g clip-path="url(#a)" transform="matrix(1.33333 0 0 -1.33333 0 682.667)">
        <path d="M0 0c-43.446 0-78.667-35.22-78.667-78.667 0-43.446 35.221-78.666 78.667-78.666 43.446 0 78.667 35.22 78.667 78.666C78.667-35.22 43.446 0 0 0Zm220.802-22.53-21.299-17.534c-24.296-20.001-24.296-57.204 0-77.205l21.299-17.534c7.548-6.214 9.497-16.974 4.609-25.441l-42.057-72.845c-4.889-8.467-15.182-12.159-24.337-8.729l-25.835 9.678c-29.469 11.04-61.688-7.561-66.862-38.602l-4.535-27.213c-1.607-9.643-9.951-16.712-19.727-16.712h-84.116c-9.776 0-18.12 7.069-19.727 16.712l-4.536 27.213c-5.173 31.041-37.392 49.642-66.861 38.602l-25.834-9.678c-9.156-3.43-19.449.262-24.338 8.729l-42.057 72.845c-4.888 8.467-2.939 19.227 4.609 25.441l21.3 17.534c24.295 20.001 24.295 57.204 0 77.205l-21.3 17.534c-7.548 6.214-9.497 16.974-4.609 25.441l42.057 72.845c4.889 8.467 15.182 12.159 24.338 8.729l25.834-9.678c29.469-11.04 61.688 7.561 66.861 38.602l4.536 27.213c1.607 9.643 9.951 16.711 19.727 16.711h84.116c9.776 0 18.12-7.068 19.727-16.711l4.535-27.213c5.174-31.041 37.393-49.642 66.862-38.602l25.835 9.678c9.155 3.43 19.448-.262 24.337-8.729l42.057-72.845c4.888-8.467 2.939-19.227-4.609-25.441z" style="stroke-width:40;stroke-linecap:round;stroke-linejoin:round;stroke-miterlimit:10;stroke-dasharray:none;stroke-opacity:1" transform="translate(256 334.666)" fill="none" stroke="#000000" stroke-width="40" stroke-linecap="round" stroke-linejoin="round" stroke-miterlimit="10" stroke-dasharray="none" stroke-opacity="" data-original="#000000">
        </path>
      </g>
    </g>
  </symbol>

  <!-- icon-three-dots -->
  <symbol id="icon-three-dots">
    <g>
      <path fill="#000000" fill-rule="evenodd" d="M7 12a1.5 1.5 0 1 1-3 0 1.5 1.5 0 0 1 3 0zm6.5 0a1.5 1.5 0 1 1-3 0 1.5 1.5 0 0 1 3 0zm5 1.5a1.5 1.5 0 1 0 0-3 1.5 1.5 0 0 0 0 3z" clip-rule="evenodd" opacity="1" data-original="#000000"></path>
    </g>
  </symbol>

  <!-- icon-remove -->
  <symbol id="icon-remove">
    <g>
      <path d="M64 341.333C64 364.907 83.093 384 106.667 384h170.667C300.907 384 320 364.907 320 341.333v-256H64v256zM266.667 21.333 245.333 0H138.667l-21.334 21.333H42.667V64h298.666V21.333z" fill="#000000" opacity="1" data-original="#000000" class="hovered-path">
      </path>
    </g>
  </symbol>

  <!-- icon-account-settings -->
  <symbol id="icon-account-settings">
    <g>
      <path d="M268.58 304.36c-7.18 0-13 5.82-13 13-.006 33.651-27.289 60.925-60.94 60.92-33.651-.006-60.926-27.289-60.92-60.94.006-33.647 27.283-60.92 60.93-60.92 7.18 0 13-5.82 13-13s-5.82-13-13-13c-48.002.033-86.907 38.938-86.94 86.94 0 48.013 38.922 86.935 86.935 86.935s86.935-38.922 86.935-86.935c0-7.18-5.82-13-13-13z" fill="#000000" opacity="1" data-original="#000000" class="hovered-path"></path>
      <path d="M371.86 347.26c-1.24-7.072-7.978-11.8-15.05-10.56l-27.21 4.77a13 13 0 0 0-10.31 9.43 128.283 128.283 0 0 1-12.77 30.77 12.998 12.998 0 0 0 .62 14l15.88 22.63a7.92 7.92 0 0 1-.88 10.17l-16.32 16.32a7.92 7.92 0 0 1-10.16.89l-22.63-15.88a12.998 12.998 0 0 0-14-.62 128.168 128.168 0 0 1-30.77 12.77 13 13 0 0 0-9.43 10.31L214 479.44a7.92 7.92 0 0 1-7.81 6.56H183.1a7.92 7.92 0 0 1-7.81-6.56l-4.77-27.2a13 13 0 0 0-9.43-10.31 128.37 128.37 0 0 1-30.78-12.77 12.998 12.998 0 0 0-14 .62l-22.59 15.87a7.92 7.92 0 0 1-10.17-.88l-16.32-16.32a7.93 7.93 0 0 1-.89-10.16l15.88-22.63a13 13 0 0 0 .62-14 128.007 128.007 0 0 1-12.77-30.77 13 13 0 0 0-10.31-9.43l-27.2-4.77A7.92 7.92 0 0 1 26 328.9v-23.09a7.92 7.92 0 0 1 6.56-7.81l27.2-4.77a13 13 0 0 0 10.31-9.43A128.024 128.024 0 0 1 82.84 253a13 13 0 0 0-.62-14l-15.87-22.56a7.92 7.92 0 0 1 .88-10.17l16.33-16.33a7.92 7.92 0 0 1 10.16-.88l22.63 15.88a12.998 12.998 0 0 0 14 .62 128.256 128.256 0 0 1 30.78-12.77 13 13 0 0 0 9.43-10.31l4.77-27.2c1.24-7.072-3.488-13.81-10.56-15.05s-13.81 3.488-15.05 10.56l-3.38 19.3a154.266 154.266 0 0 0-21.59 9l-16.05-11.26c-13.484-9.488-31.841-7.888-43.48 3.79l-16.38 16.27c-11.667 11.645-13.262 29.996-3.78 43.48l11.26 16.05a154.048 154.048 0 0 0-9 21.6l-19.3 3.38C11.802 275.248-.02 289.344 0 305.81v23.09c-.021 16.482 11.823 30.589 28.06 33.42l19.3 3.39a153.977 153.977 0 0 0 9 21.59l-11.3 16.05c-9.479 13.486-7.88 31.837 3.79 43.48l16.33 16.32c11.643 11.671 29.997 13.266 43.48 3.78l16-11.26a154.386 154.386 0 0 0 21.59 9l3.38 19.3c2.848 16.244 16.978 28.078 33.47 28.03h23.09c16.486.02 30.593-11.829 33.42-28.07l3.39-19.3a154.216 154.216 0 0 0 21.59-9l16.06 11.26c13.485 9.484 31.839 7.884 43.48-3.79l16.33-16.33c11.67-11.643 13.269-29.994 3.79-43.48l-11.25-16a154.386 154.386 0 0 0 9-21.59l19.3-3.39c7.072-1.24 11.8-7.978 10.56-15.05z" fill="#000000" opacity="1" data-original="#000000" class="hovered-path"></path>
      <path d="m487.6 118-13.6-2.38a124.464 124.464 0 0 0-6-14.35L476 90c8.242-11.72 6.853-27.671-3.29-37.79L459.83 39.3C449.706 29.136 433.731 27.742 422 36l-11.31 7.93a124.111 124.111 0 0 0-14.35-6L394 24.39C391.538 10.272 379.271-.023 364.94 0h-18.19c-14.33-.018-26.593 10.282-29.05 24.4L315.31 38a124.111 124.111 0 0 0-14.35 6l-11.31-8c-11.72-8.242-27.671-6.853-37.79 3.29L239 52.17c-10.164 10.124-11.558 26.099-3.3 37.83l7.93 11.31a124.111 124.111 0 0 0-6 14.35L224.08 118c-14.114 2.462-24.408 14.723-24.39 29.05v18.19c-.028 14.334 10.269 26.607 24.39 29.07l13.59 2.38a124.111 124.111 0 0 0 6 14.35l-7.94 11.31c-8.243 11.716-6.863 27.664 3.27 37.79L251.86 273c10.121 10.149 26.078 11.538 37.8 3.29l11.34-7.93a124.538 124.538 0 0 0 14.35 6l2.39 13.6c2.462 14.114 14.723 24.408 29.05 24.39h18.19c14.331 0 26.582-10.317 29.02-24.44l2.38-13.59a124.111 124.111 0 0 0 14.35-6L422 276.3c11.73 8.262 27.708 6.868 37.83-3.3l12.87-12.87c10.137-10.117 11.529-26.059 3.3-37.78L468.05 211a124.538 124.538 0 0 0 6-14.35l13.6-2.39c14.083-2.476 24.352-14.711 24.35-29.01v-18.19c.023-14.334-10.278-26.602-24.4-29.06zm-1.6 47.28a3.49 3.49 0 0 1-2.89 3.44l-21.44 3.76a13 13 0 0 0-10.31 9.43 98.323 98.323 0 0 1-9.79 23.59 12.998 12.998 0 0 0 .62 14l12.51 17.84a3.49 3.49 0 0 1-.39 4.48l-12.86 12.86a3.49 3.49 0 0 1-4.45.32l-17.87-12.5a12.998 12.998 0 0 0-14-.62 98.242 98.242 0 0 1-23.59 9.79 13 13 0 0 0-9.39 10.33l-3.76 21.44a3.49 3.49 0 0 1-3.44 2.89h-18.2a3.49 3.49 0 0 1-3.44-2.89L339.54 262a13 13 0 0 0-9.43-10.31 98.411 98.411 0 0 1-23.6-9.79 12.998 12.998 0 0 0-14 .62L274.72 255a3.49 3.49 0 0 1-4.48-.39l-12.86-12.86a3.49 3.49 0 0 1-.39-4.48l12.51-17.84a12.998 12.998 0 0 0 .62-14 98.145 98.145 0 0 1-9.79-23.59 12.999 12.999 0 0 0-10.33-9.38l-21.44-3.76a3.49 3.49 0 0 1-2.89-3.44l.01-18.2a3.49 3.49 0 0 1 2.89-3.44l21.43-3.77a13 13 0 0 0 10.31-9.43 98.242 98.242 0 0 1 9.79-23.59 12.998 12.998 0 0 0-.62-14L257 75a3.49 3.49 0 0 1 .39-4.48l12.87-12.87a3.49 3.49 0 0 1 4.48-.39l17.83 12.51a13 13 0 0 0 14 .62 98.242 98.242 0 0 1 23.59-9.79 13 13 0 0 0 9.43-10.31l3.76-21.44a3.49 3.49 0 0 1 3.4-2.85h18.19a3.49 3.49 0 0 1 3.44 2.89l3.76 21.44a13 13 0 0 0 9.43 10.31 98.145 98.145 0 0 1 23.59 9.79 12.998 12.998 0 0 0 14-.62L437 57.3a3.49 3.49 0 0 1 4.48.39l12.87 12.87a3.489 3.489 0 0 1 .35 4.44l-12.51 17.87a12.998 12.998 0 0 0-.62 14 98.323 98.323 0 0 1 9.79 23.59 13 13 0 0 0 10.31 9.43l21.44 3.76a3.49 3.49 0 0 1 2.89 3.44v18.19z" fill="#000000" opacity="1" data-original="#000000" class="hovered-path"></path>
      <path d="M355.84 94.05c-34.302 0-62.11 27.808-62.11 62.11.039 34.286 27.824 62.071 62.11 62.11 34.302 0 62.11-27.808 62.11-62.11s-27.808-62.11-62.11-62.11zm0 98.22c-19.943 0-36.11-16.167-36.11-36.11-.005-19.953 16.157-36.138 36.11-36.16v.05c19.943 0 36.11 16.167 36.11 36.11 0 19.943-16.167 36.11-36.11 36.11z" fill="#000000" opacity="1" data-original="#000000" class="hovered-path"></path>
    </g>
  </symbol>

  <!-- icon-night-mode -->
  <symbol id="icon-night-mode">
    <g>
      <path d="M30.18 18.893a1.373 1.373 0 0 0-1.632-.011 11.05 11.05 0 0 1-14.215-1.224 11.05 11.05 0 0 1-1.22-14.218 1.399 1.399 0 0 0-.016-1.644 1.322 1.322 0 0 0-1.5-.477 15.127 15.127 0 0 0-6.941 4.767c-4.722 5.73-4.507 14.203.499 19.71 2.812 3.093 6.655 4.851 10.823 4.949a14.958 14.958 0 0 0 11.037-4.416 14.937 14.937 0 0 0 3.643-5.893 1.357 1.357 0 0 0-.478-1.543zm-4.225 6.376a13.48 13.48 0 0 1-9.94 3.978c-3.754-.09-7.217-1.673-9.75-4.46-4.508-4.958-4.701-12.588-.45-17.747a13.627 13.627 0 0 1 5.866-4.161 12.544 12.544 0 0 0 1.592 15.841 12.548 12.548 0 0 0 15.841 1.594 13.435 13.435 0 0 1-3.159 4.955z" fill="#000000" opacity="1" data-original="#000000"></path>
      <path d="M17.736 10.642a5.22 5.22 0 0 1 3.611 3.613.97.97 0 0 0 .938.722h.002a.971.971 0 0 0 .94-.721 5.231 5.231 0 0 1 3.614-3.614l.002-.001a.971.971 0 0 0-.002-1.879 5.222 5.222 0 0 1-3.615-3.613.97.97 0 0 0-.939-.719h-.002a.971.971 0 0 0-.938.722 5.21 5.21 0 0 1-3.61 3.61.972.972 0 0 0-.001 1.88zm4.552-3.808a6.763 6.763 0 0 0 2.871 2.868 6.77 6.77 0 0 0-2.871 2.871 6.763 6.763 0 0 0-2.868-2.871 6.75 6.75 0 0 0 2.868-2.868z" fill="#000000" opacity="1" data-original="#000000"></path>
    </g>
  </symbol>

  <!-- icon-logout -->
  <symbol id="icon-logout">
    <g>
      <defs>
        <clipPath id="b" clipPathUnits="userSpaceOnUse">
          <path d="M0 512h512V0H0Z" fill="#000000" opacity="1" data-original="#000000"></path>
        </clipPath>
      </defs>
      <mask id="a">
        <rect width="100%" height="100%" fill="#ffffff" opacity="1" data-original="#ffffff">
        </rect>
      </mask>
      <g mask="url(#a)">
        <g clip-path="url(#b)" transform="matrix(1.33333 0 0 -1.33333 0 682.667)">
          <path d="M0 0v-40c0-33.137-26.863-60-60-60h-201c-33.137 0-60 26.863-60 60v352c0 33.137 26.863 60 60 60h201c33.137 0 60-26.863 60-60v-40" style="stroke-width:40;stroke-linecap:round;stroke-linejoin:round;stroke-miterlimit:10;stroke-dasharray:none;stroke-opacity:1" transform="translate(341 120)" fill="none" stroke="#000000" stroke-width="40" stroke-linecap="round" stroke-linejoin="round" stroke-miterlimit="10" stroke-dasharray="none" stroke-opacity="" data-original="#000000" class="">
          </path>
          <path d="M0 0h-271" style="stroke-width:40;stroke-linecap:round;stroke-linejoin:round;stroke-miterlimit:10;stroke-dasharray:none;stroke-opacity:1" transform="translate(487 255)" fill="none" stroke="#000000" stroke-width="40" stroke-linecap="round" stroke-linejoin="round" stroke-miterlimit="10" stroke-dasharray="none" stroke-opacity="" data-original="#000000" class="">
          </path>
          <path d="m0 0 44.786 44.787c11.716 11.716 11.716 30.71 0 42.426L0 132" style="stroke-width:40;stroke-linecap:round;stroke-linejoin:round;stroke-miterlimit:10;stroke-dasharray:none;stroke-opacity:1" transform="translate(438.427 189)" fill="none" stroke="#000000" stroke-width="40" stroke-linecap="round" stroke-linejoin="round" stroke-miterlimit="10" stroke-dasharray="none" stroke-opacity="" data-original="#000000" class=""></path>
        </g>
      </g>
    </g>
  </symbol>
</svg>